<?xml version="1.0" encoding="UTF-8"?>
<!-- Generator: Adobe Illustrator 23.0.5, SVG Export Plug-In . SVG Version: 6.00 Build 0)  -->
<svg version="1.1" id="Layer_1" xmlns="http://www.w3.org/2000/svg" xmlns:xlink="http://www.w3.org/1999/xlink" x="0px" y="0px" viewBox="0 0 349.1 195.1" style="enable-background:new 0 0 349.1 195.1;" xml:space="preserve">
<style type="text/css">
	.st0{fill:#9AD7C6;}
	.st1{fill:#FFFFFF;}
</style>
<title>shape_combined2</title>
<g>
	<path class="st0" d="M104,23c54.5-4.7,108.2-2.5,137,4c27.6,6.2,79,21.3,108.1,22.9V30.1C320,30.6,267.5,25.2,240.1,19   c-28.7-6.5-79.9-18.3-134.5-19C60.7-0.5,13.8,6.2,0,8.4v34.5C13.4,39,58.4,27,104,23z"/>
	<path class="st1" d="M104,23C58.4,27,13.4,39,0,42.8v152.2h349.1V49.9C320,48.4,268.6,33.3,241,27C212.2,20.5,158.5,18.3,104,23z"/>
</g>
</svg>